<?xml version="1.0" encoding="UTF-8" standalone="no"?>
<!-- Created with Inkscape (http://www.inkscape.org/) -->

<svg
   version="1.1"
   id="svg1"
   width="2272.8989"
   height="680"
   viewBox="0 0 2272.8989 679.99997"
   sodipodi:docname="logo_indica.svg"
   inkscape:version="1.3.2 (091e20e, 2023-11-25)"
   xmlns:inkscape="http://www.inkscape.org/namespaces/inkscape"
   xmlns:sodipodi="http://sodipodi.sourceforge.net/DTD/sodipodi-0.dtd"
   xmlns="http://www.w3.org/2000/svg"
   xmlns:svg="http://www.w3.org/2000/svg">
  <defs
     id="defs1">
    <clipPath
       clipPathUnits="userSpaceOnUse"
       id="clipPath2">
      <path
         d="M 0,996.398 H 1704.682 V 0 H 0 Z"
         transform="translate(-437.16261,-501.29391)"
         id="path2" />
    </clipPath>
    <clipPath
       clipPathUnits="userSpaceOnUse"
       id="clipPath4">
      <path
         d="M 0,996.398 H 1704.682 V 0 H 0 Z"
         transform="translate(-1244.4024,-507.55761)"
         id="path4" />
    </clipPath>
    <clipPath
       clipPathUnits="userSpaceOnUse"
       id="clipPath6">
      <path
         d="M 0,996.398 H 1704.682 V 0 H 0 Z"
         transform="translate(-987.80185,-463.64551)"
         id="path6" />
    </clipPath>
    <clipPath
       clipPathUnits="userSpaceOnUse"
       id="clipPath8">
      <path
         d="M 0,996.398 H 1704.682 V 0 H 0 Z"
         transform="translate(-329.85941,-584.66112)"
         id="path8" />
    </clipPath>
    <clipPath
       clipPathUnits="userSpaceOnUse"
       id="clipPath10">
      <path
         d="M 0,996.398 H 1704.682 V 0 H 0 Z"
         transform="translate(-355.09471,-631.15332)"
         id="path10" />
    </clipPath>
    <clipPath
       clipPathUnits="userSpaceOnUse"
       id="clipPath12">
      <path
         d="M 0,996.398 H 1704.682 V 0 H 0 Z"
         transform="translate(-920.66995,-631.15332)"
         id="path12" />
    </clipPath>
    <clipPath
       clipPathUnits="userSpaceOnUse"
       id="clipPath14">
      <path
         d="M 0,996.398 H 1704.682 V 0 H 0 Z"
         transform="translate(-895.96,-584.66112)"
         id="path14" />
    </clipPath>
    <clipPath
       clipPathUnits="userSpaceOnUse"
       id="clipPath16">
      <path
         d="M 0,996.398 H 1704.682 V 0 H 0 Z"
         transform="translate(-400.35941,-584.66112)"
         id="path16" />
    </clipPath>
    <clipPath
       clipPathUnits="userSpaceOnUse"
       id="clipPath18">
      <path
         d="M 0,996.398 H 1704.682 V 0 H 0 Z"
         transform="translate(-649.32761,-588.59472)"
         id="path18" />
    </clipPath>
    <clipPath
       clipPathUnits="userSpaceOnUse"
       id="clipPath20">
      <path
         d="M 0,996.398 H 1704.682 V 0 H 0 Z"
         transform="translate(0,2.5000001e-5)"
         id="path20" />
    </clipPath>
    <clipPath
       clipPathUnits="userSpaceOnUse"
       id="clipPath22">
      <path
         d="M 0,996.398 H 1704.682 V 0 H 0 Z"
         transform="translate(-760.86279,-481.99411)"
         id="path22" />
    </clipPath>
  </defs>
  <sodipodi:namedview
     id="namedview1"
     pagecolor="#505050"
     bordercolor="#ffffff"
     borderopacity="1"
     inkscape:showpageshadow="0"
     inkscape:pageopacity="0"
     inkscape:pagecheckerboard="1"
     inkscape:deskcolor="#505050"
     inkscape:zoom="0.34141303"
     inkscape:cx="1121.8084"
     inkscape:cy="483.2856"
     inkscape:window-width="1408"
     inkscape:window-height="967"
     inkscape:window-x="103"
     inkscape:window-y="23"
     inkscape:window-maximized="0"
     inkscape:current-layer="layer-MC0">
    <inkscape:page
       x="0"
       y="0"
       inkscape:label="1"
       id="page1"
       width="2272.8989"
       height="680"
       margin="428.62799 314.02667 463.60535 439.81201"
       bleed="0"
       inkscape:export-filename="logo_indica.png"
       inkscape:export-xdpi="96"
       inkscape:export-ydpi="96" />
  </sodipodi:namedview>
  <g
     id="layer-MC0"
     inkscape:groupmode="layer"
     inkscape:label="Layer 1"
     transform="matrix(1.48397,0,0,1.48397,-646.34913,-383.85429)">
    <path
       id="path1"
       d="m 0,0 c -1.831,4.319 -1.035,15.223 -1.035,21.444 l 0.014,63.644 c 0,0.111 0.01,0.434 0.003,0.536 -0.057,0.843 -0.035,0.405 -0.107,0.666 -0.465,1.7 -1.125,2.112 -2,2.077 V -51.652 h 2.246 c 0.047,1.561 0.117,3.114 0.243,4.642 0.28,3.383 1.263,6.564 1.614,9.694 0.485,4.34 0.526,8.331 1.914,11.939 4.187,17.18 9.604,34.75 18.014,50.369 6.524,12.115 14.437,23.997 23.747,34.154 2.539,2.771 5.217,5.417 8.044,7.894 11.482,10.06 26.763,16.224 41.907,17.682 15.167,1.46 30.709,-4.672 41.976,-14.662 3.1,-2.748 6.114,-5.853 8.666,-9.122 10.195,-13.058 14.77,-29.354 16.383,-45.621 0.911,-9.182 0.736,-18.459 0.736,-27.674 v -145.434 c 0.001,-0.963 0.006,-1.89 -0.039,-2.851 -0.054,-1.15 -0.106,-1.42 -0.301,-2.619 -1.07,-6.591 -6.784,-9.139 -12.788,-9.451 -1.219,-0.063 -2.908,0.203 -4.054,-0.283 -0.067,-0.028 -0.143,-0.062 -0.203,-0.097 -0.058,-0.032 -0.13,-0.08 -0.181,-0.117 -0.462,-0.344 -0.059,0.034 -0.389,-0.488 0.686,-1.471 4.036,-1.041 5.696,-1.105 5.257,-0.199 45.915,-1.072 48.167,0.667 0.173,1.512 -0.81,1.291 -2.685,1.326 -2.568,0.049 -5.304,0.123 -7.646,0.807 -5.94,1.734 -7.492,8.926 -7.517,14.211 -0.214,46.109 0.004,92.223 0.004,138.332 0,15.764 0.074,31.627 -2.742,47.196 -2.651,14.659 -7.699,29.455 -18.821,39.9 -8.938,8.393 -21.182,16.415 -33.096,19.634 -8.017,2.167 -16.523,3.09 -24.818,2.875 C 96.438,90.029 91.875,89.577 87.418,88.841 82.67,88.057 77.855,86.92 73.298,85.357 60.016,80.803 48.313,71.541 38.652,61.553 35.955,58.764 33.403,55.827 31.003,52.778 26.551,47.125 22.59,41.06 19.156,34.738 14.192,25.604 7.253,14.126 4.321,4.214 4.005,3.146 3.761,1.867 3.131,1.091 2.665,0.516 0.958,-0.092 0,0"
       style="fill:#231f20;fill-opacity:1;fill-rule:evenodd;stroke:none"
       transform="matrix(1.3212696,0,0,-1.3212696,592.40857,462.95817)"
       clip-path="url(#clipPath2)" />
    <path
       id="path3"
       d="m 0,0 c 2.263,0.228 2.079,3.358 2.247,5.192 0.186,2.03 0.745,4.012 1.094,6.236 2.896,18.471 11.628,38.383 27.267,49.544 10.934,7.802 24.731,12.007 37.578,15.446 12.32,3.299 26.169,3.342 38.777,2.017 14.683,-1.544 28.442,-4.588 42.066,-10.319 7.172,-3.016 14.2,-7.798 18.268,-14.584 0.955,-1.594 1.681,-1.663 2.605,-3.533 l 2.695,-4.81 c 0.94,-3.115 2.28,-4.9 2.582,-8.436 C 176.315,23.429 170.2,11.073 159.874,2.888 147.81,-6.681 134.265,-14.326 120.196,-20.526 107.621,-26.067 94.48,-29.484 81.38,-33.5 67.17,-37.854 53.014,-42.414 39.1,-47.647 c -7.242,-2.724 -14.378,-5.749 -21.135,-9.537 -5.982,-3.351 -11.662,-7.263 -16.774,-11.84 -13.224,-11.843 -20.987,-27.515 -20.339,-45.388 0.199,-5.488 0.694,-11.236 1.792,-16.624 2.358,-11.575 7.449,-23.193 16.124,-31.362 7.938,-7.479 17.866,-13.133 28.207,-16.52 11.85,-3.881 23.568,-5.67 36.004,-5.992 14.443,-0.375 29.821,2.105 43.722,5.89 12.123,3.301 23.78,8.116 34.149,15.28 6.145,4.246 11.974,8.979 17.419,14.092 1.895,1.778 3.682,3.666 5.523,5.499 1.266,1.26 3.06,3.666 4.832,4.237 3.086,0.994 5.87,1.336 6.442,-2.894 0.312,-2.311 0.316,-4.114 0.492,-6.549 0.838,-11.616 5.741,-28.909 18.275,-32.347 1.221,-0.335 1.782,-0.698 2.719,-1.127 0.978,-0.448 1.507,-0.476 2.673,-0.632 4.124,-0.551 9.121,-0.56 13.023,1.013 5.424,2.186 5.023,1.553 8.854,5.657 0.564,0.605 1.097,1.338 1.502,2.139 0.569,1.125 1.115,1.142 1.476,1.906 0.78,1.65 1.411,4.2 -1.287,4.414 -0.856,-1.057 -0.633,-1.887 -1.279,-3.211 -2.703,-5.545 -8.614,-7.885 -14.52,-6.987 -2.719,0.412 -4.901,2.393 -6.541,4.243 -4.986,5.623 -6.943,18.505 -6.939,25.571 V -10.1 c 0,11.782 0.48,23.477 -0.996,35.208 -1.891,15.023 -8.304,27.24 -20.169,36.698 -2.962,2.361 -6.116,5.057 -9.54,6.985 -3.697,2.08 -7.814,3.305 -11.788,4.728 -5.464,1.955 -11.052,3.592 -16.685,4.982 -11.753,2.898 -23.93,4.45 -36.023,4.891 C 81.279,84.013 63.211,82.447 47,77.004 33.106,72.339 18.883,65.573 8.294,55.239 2.559,49.642 -2.594,42.644 -6.284,35.517 -6.949,34.232 -7.093,33.711 -7.925,32.791 L -5.253,19.936 C -4.872,18.272 -0.761,0.605 0,0 m 134.771,-160.641 c -4.033,-2.431 -8.225,-4.632 -12.514,-6.651 -20.32,-9.563 -46.004,-15.35 -68.173,-9.63 -11.615,2.998 -23.655,8.199 -32.289,16.756 -2.275,2.256 -4.345,4.825 -6.099,7.508 -2.362,3.613 -4.339,7.637 -5.801,11.7 -1.249,3.466 -2.138,7.134 -2.684,10.777 -1.159,7.743 -1.205,15.934 -0.629,23.734 4.779,64.735 90.813,64.62 135.606,92.91 5.553,3.505 11.299,6.706 16.722,10.414 4.044,2.764 7.738,6.281 12.812,7.008 2.922,-2.26 3.727,0.14 3.727,-9.156 0,-20.719 0.41,-43.222 0.492,-64.393 0.049,-12.638 -0.474,-25.209 -2.991,-37.627 -2.729,-13.472 -7.655,-26.042 -16.983,-36.334 -6.103,-6.734 -13.432,-12.334 -21.196,-17.016"
       style="fill:#231f20;fill-opacity:1;fill-rule:evenodd;stroke:none"
       transform="matrix(1.3212696,0,0,-1.3212696,1658.9899,454.68214)"
       clip-path="url(#clipPath4)" />
    <path
       id="path5"
       d="m 0,0 c 0.216,15.803 3.14,31.554 8.892,46.38 3.252,8.382 7.028,16.505 11.967,24.043 16.523,25.214 41.955,44.992 72.254,49.942 32.981,5.39 67.053,-4.585 92.893,-25.514 8.455,-6.849 15.791,-15.053 24.23,-21.858 2.035,-1.641 2.044,-4.122 4.017,-0.388 l 3.588,10.867 c 0.802,1.578 2.336,7.31 2.015,8.854 -0.593,1.231 -2.784,3.217 -4.291,3.979 -1.157,0.586 -1.432,0.952 -2.313,1.784 -0.701,0.663 -1.586,0.831 -2.579,1.52 -41.536,28.834 -97.131,37.842 -144.139,17.397 C 54.302,111.686 40.613,104.625 30.34,96.021 23.001,89.875 15.93,82.599 10.133,74.967 3.323,66.002 -3.43,56.066 -8.43,45.96 c -14.175,-28.654 -17.123,-63.595 -8.979,-94.501 6.805,-25.824 23.003,-48.287 43.55,-65.014 26.96,-21.947 64.377,-32.062 98.747,-27.576 9.397,1.227 19.097,3.497 28.013,6.742 10.462,3.808 21.071,8.729 30.602,14.502 6.474,3.921 11.993,8.843 17.83,13.428 0.811,0.637 0.945,0.485 1.609,1.227 0.562,0.628 0.585,0.877 1.252,1.294 2.625,1.643 1.321,1.43 2.978,2.733 1.654,1.3 1.679,2.068 2.859,2.816 1.221,0.776 0.563,0.099 1.264,1.532 0.475,0.971 1.218,1.074 2.696,3.005 0.706,0.92 0.981,0.579 1.62,1.207 0.51,0.501 0.414,1.032 1.064,1.786 1.022,1.185 1.262,0.711 2.595,3.071 0.748,1.323 1.801,1.783 2.51,3.181 1.229,2.42 3.533,2.535 1.691,4.984 -1.403,0.051 -1.933,-1.121 -2.979,-1.977 -1.325,-1.084 -1.227,-1.711 -2.024,-2.803 -0.904,-1.238 -1.149,-0.538 -2.25,-2.579 -0.591,-1.096 -0.38,-0.587 -1.289,-1.288 -0.684,-0.526 -0.672,-0.808 -0.984,-1.368 -0.733,-1.316 -1.53,-0.977 -2.454,-2.276 -1.17,-1.645 -1.545,-1.343 -2.383,-2.408 -1.78,-2.263 -1.768,-1.686 -2.398,-2.453 -1.302,-1.592 -2.95,-3.279 -4.857,-4.52 l -3.954,-3.491 c -0.855,-1.233 -2.735,-2.025 -3.953,-3.116 -0.937,-0.841 -2.006,-0.998 -2.888,-1.907 -1.926,-1.984 -2.158,-1.22 -4.234,-3.131 -1.021,-0.941 -3.084,-1.631 -4.218,-2.648 -4.708,-4.215 -13.624,-6.924 -19.46,-9.197 -23.227,-9.047 -49.438,-10.338 -73.308,-2.996 -8.72,2.681 -17.802,6.141 -25.825,10.518 -27.113,14.79 -48.57,44.54 -57.659,73.656 C 1.949,-29.497 -0.201,-14.727 0,0"
       style="fill:#231f20;fill-opacity:1;fill-rule:evenodd;stroke:none"
       transform="matrix(1.3212696,0,0,-1.3212696,1319.9514,512.70186)"
       clip-path="url(#clipPath6)" />
    <path
       id="path7"
       d="m 0,0 c 0.039,-0.108 0.084,-0.208 0.137,-0.301 1.051,-1.846 4.789,-0.755 7.024,-1.845 6.485,-4.273 10.314,-8.159 10.796,-16.594 0.668,-11.704 0.278,-24.435 0.278,-36.365 v -183.212 c 0.002,-2.888 -0.047,-6.137 -0.405,-8.621 -0.661,-4.569 -5.131,-8.451 -9.596,-8.934 -3.608,-0.392 -7.082,0.259 -8.053,-1.192 0.746,-1.413 2.779,-0.975 5.855,-1.101 2.342,-0.097 4.871,0.077 7.345,0.077 l 14.219,-0.027 c 7.463,-0.014 15.248,-0.045 22.115,-0.034 3.041,0.192 3.825,-0.318 4.535,1.085 -1.557,1.989 -7.302,0.3 -10.812,1.896 -5.767,2.621 -7.256,8.879 -7.244,14.862 V -2.557 c 0,3.369 0.519,5.379 -1.289,7.552 C 24.61,3.936 14.353,2.149 4.091,1.249 2.229,1.1 1.081,1.283 0.221,0.291 0.146,0.203 0.072,0.106 0,0"
       style="fill:#231f20;fill-opacity:1;fill-rule:evenodd;stroke:none"
       transform="matrix(1.3212696,0,0,-1.3212696,450.63211,352.80762)"
       clip-path="url(#clipPath8)" />
    <path
       id="path9"
       d="m 0,0 c 7.104,0 12.862,-5.76 12.862,-12.862 0,-7.104 -5.758,-12.863 -12.862,-12.863 -7.104,0 -12.862,5.759 -12.862,12.863 C -12.862,-5.76 -7.104,0 0,0"
       style="fill:#231f20;fill-opacity:1;fill-rule:evenodd;stroke:none"
       transform="matrix(1.3212696,0,0,-1.3212696,483.97475,291.37889)"
       clip-path="url(#clipPath10)" />
    <path
       id="path11"
       d="m 0,0 c 7.104,0 12.862,-5.76 12.862,-12.862 0,-7.104 -5.758,-12.863 -12.862,-12.863 -7.104,0 -12.862,5.759 -12.862,12.863 C -12.862,-5.76 -7.104,0 0,0"
       style="fill:#231f20;fill-opacity:1;fill-rule:evenodd;stroke:none"
       transform="matrix(1.3212696,0,0,-1.3212696,1231.2521,291.37889)"
       clip-path="url(#clipPath12)" />
    <path
       id="path13"
       d="m 0,0 c 0.039,-0.108 0.084,-0.208 0.137,-0.301 1.051,-1.846 4.789,-0.755 7.024,-1.845 6.485,-4.273 10.314,-8.159 10.795,-16.594 0.669,-11.704 0.279,-24.435 0.279,-36.365 v -183.212 c 0.001,-2.888 -0.047,-6.137 -0.406,-8.621 -0.66,-4.569 -5.131,-8.451 -9.595,-8.934 -3.608,-0.392 -7.083,0.259 -8.053,-1.192 0.746,-1.413 2.779,-0.975 5.854,-1.101 2.343,-0.097 4.872,0.077 7.346,0.077 l 14.22,-0.027 c 7.462,-0.014 15.247,-0.045 22.114,-0.034 3.042,0.192 3.825,-0.318 4.534,1.085 -1.556,1.989 -7.301,0.3 -10.811,1.896 -5.767,2.621 -7.256,8.879 -7.245,14.862 l 0.001,237.749 c 0,3.369 0.519,5.379 -1.289,7.552 C 24.61,3.936 14.353,2.149 4.091,1.249 2.228,1.1 1.081,1.283 0.221,0.291 0.146,0.203 0.072,0.106 0,0"
       style="fill:#231f20;fill-opacity:1;fill-rule:evenodd;stroke:none"
       transform="matrix(1.3212696,0,0,-1.3212696,1198.6036,352.80762)"
       clip-path="url(#clipPath14)" />
    <path
       id="path15"
       d="m 0,0 c 0.039,-0.108 0.084,-0.208 0.137,-0.301 1.051,-1.846 4.789,-0.755 7.025,-1.845 6.484,-4.273 10.313,-8.159 10.795,-16.594 0.668,-11.704 0.278,-24.435 0.278,-36.365 v -183.212 c 0.002,-2.888 -0.047,-6.137 -0.405,-8.621 -0.661,-4.569 -5.131,-8.451 -9.596,-8.934 -3.608,-0.392 -7.082,0.259 -8.053,-1.192 0.746,-1.413 2.779,-0.975 5.855,-1.101 2.342,-0.097 4.871,0.077 7.345,0.077 l 14.22,-0.027 c 7.462,-0.014 15.247,-0.045 22.114,-0.034 3.041,0.192 3.825,-0.318 4.535,1.085 -1.556,1.989 -7.302,0.3 -10.811,1.896 -5.768,2.621 -7.257,8.879 -7.245,14.862 V -2.557 c 0,3.369 0.519,5.379 -1.289,7.552 C 24.61,3.936 14.353,2.149 4.091,1.249 2.229,1.1 1.081,1.283 0.221,0.291 0.146,0.203 0.072,0.106 0,0"
       style="fill:#231f20;fill-opacity:1;fill-rule:evenodd;stroke:none"
       transform="matrix(1.3212696,0,0,-1.3212696,543.78162,352.80762)"
       clip-path="url(#clipPath16)" />
    <path
       id="path17"
       d="m 0,0 v -3.151 c 5.98,0 18.131,-2.866 18.131,-10.24 v -235.523 c 0,-4.635 -4.445,-10.19 -12.621,-10.232 -0.76,-0.004 -7.355,0.146 -5.738,-2.499 0.502,-0.822 1.03,-1.448 2.593,-1.448 53.996,0 129.298,-7.965 176.255,22.384 0.6,0.389 0.83,0.516 1.479,0.886 62.133,35.412 66.41,147.035 22.575,194.212 C 153.795,3.506 107.445,0.316 44.929,-0.006 29.562,0.366 15.079,0 0,0 m 46.511,-259.154 c -4.365,0 -8.672,7.979 -8.672,10.24 v 244.75 c 50.993,0 66.12,3.604 110.924,-16.55 2.091,-0.94 4.246,-1.932 6.474,-2.979 53.829,-33.828 65.117,-118.078 40.335,-170.938 l -3.408,-7.622 c -0.658,-1.558 -0.457,-1.129 -1.33,-2.61 l -1.158,-1.994 c -0.877,-1.573 -0.574,-1.122 -1.47,-2.469 -0.685,-1.032 -0.755,-1.086 -1.585,-2.355 -5.016,-7.673 -7.604,-10.112 -13.518,-16.425 l -8.48,-7.281 c -0.679,-0.518 -0.753,-0.532 -1.389,-0.975 -35.316,-24.623 -75.961,-22.792 -116.723,-22.792"
       style="fill:#231f20;fill-opacity:1;fill-rule:evenodd;stroke:none"
       transform="matrix(1.3212696,0,0,-1.3212696,872.73574,347.61027)"
       clip-path="url(#clipPath18)" />
    <path
       id="path19"
       d="m 1233.8,648.694 h 213.349 v -13.57 H 1233.8 Z"
       style="fill:#203f20;fill-opacity:1;fill-rule:evenodd;stroke:none"
       transform="matrix(1.3212696,0,0,-1.3212696,14.798906,1125.3026)"
       clip-path="url(#clipPath20)" />
    <path
       id="path21"
       d="m 0,0 c -4.213,1.653 -3.983,2.545 -5.875,8.158 -4.798,14.27 -3.908,41.562 -24.912,31.265 -8.175,-49.739 43.014,-36.863 31.851,-58.174 -9.817,0.188 -15.682,21.248 -32.273,17.608 -9.507,-5.881 3.395,-18.592 11.587,-20.247 9,-1.814 28.615,1.975 20.401,-14.538 -9.924,-0.939 -21.257,16.767 -33.893,5.277 -2.462,-21.53 23.457,-12.078 34.149,-12.373 1.401,-3.797 3.247,-11.258 -0.282,-14.528 -2.298,-3.006 -2.695,-1.513 -7.208,1.011 -31.651,17.712 -36.799,-12.659 -13.498,-14.616 11.896,-0.996 13.118,6.72 20.58,4.329 1.4,-4.465 1.443,-10.875 1.384,-16.354 -0.063,-6.057 -2.053,-12.126 2.441,-14.027 8.197,-0.437 0.018,24.579 5.062,38.046 7.824,0.332 28.095,-14.825 29.942,-3.574 2.178,13.252 -24.487,9.597 -32.473,12.131 l 0.084,8.278 c 13.284,3.745 23.329,-11.006 34.43,-1.062 2.057,17.483 -22.319,6.651 -32.761,8.254 l -0.163,9.928 c 8.686,0.568 18.421,-3.121 24.758,0.317 7.121,3.864 13.779,23.927 -2.434,20.21 C 21.42,-6.852 20.375,-16.288 7.987,-17.552 8.16,-6.361 10.814,-6.183 19.878,-2.703 28.312,0.535 31.648,1.746 35.7,7.594 42.031,16.731 47.633,43.274 28.602,38.015 23.589,34.771 20.617,-5.231 8.254,0.787 8.075,3.001 30.333,39.623 10.004,43.179 -14.67,47.498 3.063,7.673 -0.003,-0.002 Z"
       style="fill:#203f20;fill-opacity:1;fill-rule:evenodd;stroke:none"
       transform="matrix(1.3212696,0,0,-1.3212696,1020.1038,488.45842)"
       clip-path="url(#clipPath22)"
       inkscape:label="path21" />
  </g>
</svg>
